<?xml version="1.0" encoding="UTF-8" standalone="no"?>
<svg
   viewBox="0 0 400 512"
   version="1.1"
   id="svg231"
   sodipodi:docname="tunewalker.svg"
   inkscape:version="1.2.2 (732a01da63, 2022-12-09)"
   width="400"
   height="512"
   xmlns:inkscape="http://www.inkscape.org/namespaces/inkscape"
   xmlns:sodipodi="http://sodipodi.sourceforge.net/DTD/sodipodi-0.dtd"
   xmlns="http://www.w3.org/2000/svg"
   xmlns:svg="http://www.w3.org/2000/svg">
  <defs
     id="defs235" />
  <sodipodi:namedview
     id="namedview233"
     pagecolor="#ffffff"
     bordercolor="#000000"
     borderopacity="0.25"
     inkscape:showpageshadow="2"
     inkscape:pageopacity="0.0"
     inkscape:pagecheckerboard="0"
     inkscape:deskcolor="#d1d1d1"
     showgrid="false"
     inkscape:zoom="0.81738281"
     inkscape:cx="283.83274"
     inkscape:cy="263.64636"
     inkscape:window-width="1920"
     inkscape:window-height="1018"
     inkscape:window-x="-6"
     inkscape:window-y="-6"
     inkscape:window-maximized="1"
     inkscape:current-layer="svg231" />
  <!--! Font Awesome Pro 6.4.0 by @fontawesome - https://fontawesome.com License - https://fontawesome.com/license (Commercial License) Copyright 2023 Fonticons, Inc. -->
  <path
     d="m 236.99269,49.730173 a 48,48 0 1 1 96,0 48,48 0 1 1 -96,0 z m -33.5,151.299997 c -1,0.4 -1.9,0.8 -2.9,1.2 l -8,3.5 c -16.4,7.3 -29,21.2 -34.7,38.2 l -2.6,7.8 c -5.6,16.8 -23.7,25.8 -40.5,20.2 -16.799998,-5.6 -25.799998,-23.7 -20.199998,-40.5 l 2.6,-7.8 c 11.399998,-34.1 36.599998,-61.9 69.399998,-76.5 l 8,-3.5 c 20.8,-9.2 43.3,-14 66.1,-14 44.6,0 84.8,26.8 101.9,67.9 l 15.4,36.9 21.4,10.7 c 15.8,7.9 22.2,27.1 14.3,42.9 -7.9,15.8 -27.1,22.2 -42.9,14.3 l -26.8,-13.3 c -10.3,-5.2 -18.4,-13.8 -22.8,-24.5 l -9.6,-23 -19.3,65.5 49.5,54 c 5.4,5.9 9.2,13 11.2,20.8 l 23,92.1 c 4.3,17.1 -6.1,34.5 -23.3,38.8 -17.2,4.3 -34.5,-6.1 -38.8,-23.3 l -22,-88.1 -70.7,-77.1 c -14.8,-16.1 -20.3,-38.6 -14.7,-59.7 l 16.9,-63.5 z m -57.8,198.7 25,-62.4 c 2.1,3 4.5,5.8 7,8.6 l 40.7,44.4 -14.5,36.2 c -2.4,6 -6,11.5 -10.6,16.1 l -61.7,61.7 c -12.5,12.5 -32.799998,12.5 -45.299998,0 -12.5,-12.5 -12.5,-32.8 0,-45.3 z"
     id="path229" />
  <path
     style="fill:#0000ff;stroke-width:0.305854"
     d=""
     id="path1262" />
  <path
     style="fill:#0000ff;stroke-width:0.305854"
     d=""
     id="path1264" />
  <path
     style="fill:#0000ff;stroke-width:0.305854"
     d=""
     id="path1266" />
  <ellipse
     style="fill:#ff0000"
     id="path1513"
     cx="20.329531"
     cy="65.746567"
     rx="18.599358"
     ry="19.464445" />
  <rect
     style="fill:#ff0000;stroke-width:1.05502"
     id="rect1515"
     width="9.5159512"
     height="68.366196"
     x="29.517893"
     y="0.11132109"
     ry="4.435462" />
  <ellipse
     style="fill:#ff0000"
     id="path1513-4"
     cx="60.07103"
     cy="66.231583"
     rx="18.599358"
     ry="19.464445" />
  <rect
     style="fill:#ff0000;stroke-width:1.05716"
     id="rect1515-9"
     width="9.5159512"
     height="68.644218"
     x="69.259392"
     y="0.31831774"
     ry="4.4534998" />
  <ellipse
     style="fill:#ff0000"
     id="path1513-3"
     cx="147.01221"
     cy="102.99776"
     rx="18.599358"
     ry="19.464445" />
  <rect
     style="fill:#ff0000;stroke-width:1.05335"
     id="rect1515-3"
     width="9.5159512"
     height="68.149925"
     x="156.20058"
     y="37.578785"
     ry="4.4214306" />
  <rect
     style="fill:#ff0000;stroke-width:1.03166"
     id="rect1561"
     width="47.417553"
     height="10.813581"
     x="30.846533"
     y="0.15292713"
     ry="4.4214306" />
  <path
     style="fill:#ff0000;stroke-width:1.22342"
     d="M 272.86224,95.303112 C 249.77219,89.097786 234.08001,64.654768 238.53026,41.82573 c 7.37837,-37.8497177 52.69537,-52.288895 79.61641,-25.367859 10.86392,10.863918 16.13153,26.97757 13.40029,40.991507 -3.72033,19.088854 -18.23169,34.221666 -36.95867,38.5414 -7.17293,1.654575 -13.78988,1.445138 -21.72605,-0.687666 z"
     id="path1632" />
  <path
     style="fill:#ff0000;stroke-width:1.22342"
     d="m 314.8896,511.31908 c -6.52781,-2.41123 -14.64688,-9.4096 -17.45899,-15.0491 -1.22218,-2.451 -7.30404,-24.87479 -13.51524,-49.83063 l -11.2931,-45.37427 -37.81482,-41.31977 c -20.79817,-22.72587 -39.47958,-44.22943 -41.51426,-47.78568 -5.58281,-9.75773 -8.89144,-23.81907 -8.05761,-34.24398 0.3779,-4.72469 4.78451,-23.89779 9.82952,-42.76814 5.0295,-18.81232 9.02766,-34.3211 8.8848,-34.46396 -0.68617,-0.68617 -17.44857,7.23694 -22.14103,10.46544 -11.60308,7.98312 -20.16667,20.51422 -26.96155,39.45283 -3.27018,9.11459 -8.30606,15.04435 -15.95441,18.78633 -12.28051,6.0083 -24.79866,4.28086 -34.68312,-4.78608 -11.360049,-10.42049 -12.99306,-21.78362 -5.951161,-41.41054 12.759481,-35.56274 37.313761,-61.36944 73.434151,-77.17974 57.07283,-24.98142 108.19081,-19.48198 145.00605,15.60022 14.01308,13.35343 19.7752,22.96057 33.07714,55.14924 l 7.59044,18.36771 13.94561,7.07304 c 10.15132,5.14864 14.97468,8.37237 17.72792,11.84862 14.16426,17.88383 6.08918,43.39548 -15.74486,49.7428 -9.82496,2.8562 -14.99678,1.5849 -35.66676,-8.76734 -26.05886,-13.05118 -30.04113,-17.05601 -39.6771,-39.90194 -2.83966,-6.73256 -5.66401,-12.24026 -6.27636,-12.23932 -0.85305,0.001 -15.34883,46.46328 -19.38429,62.13072 -0.54894,2.13121 4.31534,8.06259 25.58453,31.19713 16.1019,17.51404 27.6667,31.18112 29.89226,35.32611 4.19654,7.81585 28.24698,101.65805 28.24698,110.21666 0,2.79435 -0.64745,7.2416 -1.43877,9.88279 -1.83423,6.12213 -9.65406,15.03611 -16.05535,18.3018 -6.43193,3.28133 -17.09341,3.99375 -23.63062,1.57905 z"
     id="path1634" />
  <path
     style="fill:#ff0000;stroke-width:1.22342"
     d="M 100.76638,511.89104 C 88.130987,508.22901 77.946256,495.2985 77.857292,482.80569 c -0.094,-13.20021 0.390862,-13.87172 35.897628,-49.71608 l 32.72114,-33.03226 11.90366,-29.97372 c 6.54701,-16.48554 12.02785,-30.10342 12.17963,-30.26195 0.15179,-0.15852 10.83129,11.22871 23.73223,25.30496 l 23.45626,25.59319 -8.42338,20.31932 c -4.63285,11.17562 -9.84057,22.36434 -11.57271,24.86382 -1.73214,2.49948 -18.71983,20.0388 -37.75043,38.97627 -32.53607,32.37685 -34.99766,34.54851 -41.24607,36.38797 -7.2999,2.149 -12.14653,2.31708 -17.98887,0.62383 z"
     id="path1636" />
</svg>
